<svg width="58" height="58" viewBox="0 0 58 58" fill="none" xmlns="http://www.w3.org/2000/svg">
<circle cx="29" cy="29" r="28.5" stroke="white"/>
<g opacity="0.4" clip-path="url(#clip0_83_169)">
<path d="M29.5117 44.7553L36.769 37.498C37.0734 37.2373 37.1089 36.7792 36.8482 36.4748C36.5875 36.1703 36.1293 36.1349 35.8249 36.3956C35.7965 36.4199 35.77 36.4464 35.7458 36.4748L29.7222 42.491L29.7222 13.7594C29.7222 13.3587 29.3973 13.0337 28.9964 13.0337C28.5956 13.0337 28.2707 13.3587 28.2707 13.7594L28.2707 42.491L22.2545 36.4748C21.9938 36.1703 21.5356 36.1349 21.2312 36.3956C20.9268 36.6564 20.8913 37.1145 21.1521 37.4189C21.1764 37.4473 21.2028 37.4738 21.2312 37.498L28.4885 44.7553C28.7715 45.0367 29.2286 45.0367 29.5117 44.7553Z" fill="white"/>
</g>
<defs>
<clipPath id="clip0_83_169">
<rect width="31.9326" height="31.9326" fill="white" transform="translate(44.9663 13.0337) rotate(90)"/>
</clipPath>
</defs>
</svg>
