<svg width="39" height="39" viewBox="0 0 39 39" fill="none" xmlns="http://www.w3.org/2000/svg">
<path d="M14.1819 15.9547C15.161 15.9547 15.9547 15.161 15.9547 14.1819C15.9547 13.2029 15.161 12.4092 14.1819 12.4092C13.2029 12.4092 12.4092 13.2029 12.4092 14.1819C12.4092 15.161 13.2029 15.9547 14.1819 15.9547Z" fill="#ABABAB"/>
<path d="M15.9546 16.8408H12.4092V26.5908H15.9546V16.8408Z" fill="#ABABAB"/>
<path d="M19.5 0C8.73044 0 0 8.73044 0 19.5C0 30.2696 8.73044 39 19.5 39C30.2696 39 39 30.2696 39 19.5C39 8.73044 30.2696 0 19.5 0ZM19.5 37.2273C9.70948 37.2273 1.77275 29.2905 1.77275 19.5C1.77275 9.70948 9.70948 1.77275 19.5 1.77275C29.2905 1.77275 37.2273 9.70948 37.2273 19.5C37.2273 29.2905 29.2905 37.2273 19.5 37.2273Z" fill="#ABABAB"/>
<path d="M24.2509 16.8408C21.5918 16.8408 21.2727 18.4186 21.2727 18.4186V16.8408H17.7273V26.5908H21.2727V21.2727C21.2727 21.2727 21.2727 19.4999 22.7795 19.4999C23.6659 19.4999 23.9318 20.2887 23.9318 21.2727V26.5908H27.4772V21.2727C27.4772 18.4983 26.2718 16.8408 24.2509 16.8408Z" fill="#ABABAB"/>
</svg>
