<svg width="39" height="39" viewBox="0 0 39 39" fill="none" xmlns="http://www.w3.org/2000/svg">
<g clip-path="url(#clip0_83_781)">
<path d="M19.5 0C8.73057 0 0 8.73057 0 19.5C0 30.2694 8.73057 39 19.5 39C30.2694 39 39 30.2694 39 19.5C38.9879 8.73564 30.2644 0.0120606 19.5 0ZM19.5 37.7C9.44849 37.7 1.3 29.5515 1.3 19.5C1.3 9.44849 9.44849 1.3 19.5 1.3C29.5515 1.3 37.7 9.44849 37.7 19.5C37.6886 29.5468 29.5468 37.6886 19.5 37.7Z" fill="#ABABAB"/>
<path d="M27.95 7.7998H11.05C9.25588 7.80203 7.80227 9.25564 7.80005 11.0498V27.9498C7.80227 29.744 9.25588 31.1976 11.05 31.1998H27.95C29.7442 31.1976 31.1978 29.744 31.2 27.9498V11.0498C31.1978 9.25564 29.7442 7.80203 27.95 7.7998ZM29.9 27.9498C29.9 29.0267 29.0269 29.8998 27.95 29.8998H11.05C9.97317 29.8998 9.10005 29.0267 9.10005 27.9498V11.0498C9.10005 9.97292 9.97317 9.0998 11.05 9.0998H27.95C29.0269 9.0998 29.9 9.97292 29.9 11.0498V27.9498Z" fill="#ABABAB"/>
<path d="M19.5 13C15.9101 13 13 15.9101 13 19.5C13 23.0899 15.9101 26 19.5 26C23.0899 26 26 23.0899 26 19.5C25.9962 15.9117 23.0883 13.0038 19.5 13ZM19.5 24.7C16.628 24.7 14.3 22.372 14.3 19.5C14.3 16.628 16.628 14.3 19.5 14.3C22.372 14.3 24.7 16.628 24.7 19.5C24.6968 22.3704 22.3704 24.6968 19.5 24.7Z" fill="#ABABAB"/>
<path d="M26.65 10.3999C25.5731 10.3999 24.7 11.273 24.7 12.3499C24.7 13.4268 25.5731 14.2999 26.65 14.2999C27.7268 14.2999 28.6 13.4268 28.6 12.3499C28.6 11.273 27.7268 10.3999 26.65 10.3999ZM26.65 12.9999C26.291 12.9999 26 12.7089 26 12.3499C26 11.9909 26.291 11.6999 26.65 11.6999C27.0089 11.6999 27.3 11.9909 27.3 12.3499C27.3 12.7089 27.0089 12.9999 26.65 12.9999Z" fill="#ABABAB"/>
</g>
<defs>
<clipPath id="clip0_83_781">
<rect width="39" height="39" fill="white"/>
</clipPath>
</defs>
</svg>
