<svg width="30" height="30" viewBox="0 0 30 30" fill="none" xmlns="http://www.w3.org/2000/svg">
<circle cx="14.7778" cy="14.7778" r="14.7778" fill="#C0B384"/>
<g clip-path="url(#clip0_44_10)">
<path d="M14.7777 7C11.6713 7 9.14404 9.52723 9.14404 12.6336C9.14404 16.4887 14.1856 22.1482 14.4002 22.3873C14.6019 22.6118 14.9539 22.6114 15.1551 22.3873C15.3698 22.1482 20.4113 16.4887 20.4113 12.6336C20.4112 9.52723 17.884 7 14.7777 7ZM14.7777 15.468C13.2148 15.468 11.9433 14.1965 11.9433 12.6336C11.9433 11.0707 13.2148 9.79921 14.7777 9.79921C16.3406 9.79921 17.612 11.0707 17.612 12.6336C17.612 14.1965 16.3406 15.468 14.7777 15.468Z" fill="white"/>
</g>
<defs>
<clipPath id="clip0_44_10">
<rect width="15.5556" height="15.5556" fill="white" transform="translate(7 7)"/>
</clipPath>
</defs>
</svg>
