<svg width="30" height="31" viewBox="0 0 30 31" fill="none" xmlns="http://www.w3.org/2000/svg">
<circle cx="14.7778" cy="15.4444" r="14.7778" fill="#C0B384"/>
<g clip-path="url(#clip0_44_31)">
<path d="M18.3448 7.66667H11.2107C8.8889 7.66667 7 9.55557 7 11.8774V19.0116C7 21.3333 8.8889 23.2222 11.2107 23.2222H18.3449C20.6666 23.2222 22.5555 21.3333 22.5555 19.0116V11.8774C22.5555 9.55557 20.6666 7.66667 18.3448 7.66667ZM21.6436 19.0116C21.6436 20.8305 20.1638 22.3103 18.3448 22.3103H11.2107C9.39174 22.3103 7.91193 20.8305 7.91193 19.0116V11.8774C7.91193 10.0584 9.39174 8.5786 11.2107 8.5786H18.3449C20.1638 8.5786 21.6436 10.0584 21.6436 11.8774V19.0116Z" fill="white"/>
<path d="M14.7778 11.1911C12.4324 11.1911 10.5244 13.0991 10.5244 15.4444C10.5244 17.7898 12.4324 19.6978 14.7778 19.6978C17.1231 19.6978 19.0311 17.7898 19.0311 15.4444C19.0311 13.0991 17.1231 11.1911 14.7778 11.1911ZM14.7778 18.7858C12.9354 18.7858 11.4363 17.2869 11.4363 15.4444C11.4363 13.6021 12.9354 12.103 14.7778 12.103C16.6203 12.103 18.1192 13.6021 18.1192 15.4444C18.1192 17.2869 16.6203 18.7858 14.7778 18.7858Z" fill="white"/>
<path d="M19.1328 9.68054C18.4397 9.68054 17.876 10.2444 17.876 10.9374C17.876 11.6304 18.4397 12.1943 19.1328 12.1943C19.8259 12.1943 20.3897 11.6304 20.3897 10.9374C20.3897 10.2443 19.8259 9.68054 19.1328 9.68054ZM19.1328 11.2822C18.9427 11.2822 18.7879 11.1275 18.7879 10.9374C18.7879 10.7471 18.9427 10.5925 19.1328 10.5925C19.323 10.5925 19.4778 10.7471 19.4778 10.9374C19.4778 11.1275 19.323 11.2822 19.1328 11.2822Z" fill="white"/>
</g>
<defs>
<clipPath id="clip0_44_31">
<rect width="15.5556" height="15.5556" fill="white" transform="translate(7 7.66667)"/>
</clipPath>
</defs>
</svg>
