<svg width="30" height="30" viewBox="0 0 30 30" fill="none" xmlns="http://www.w3.org/2000/svg">
<circle cx="14.7778" cy="15.2222" r="14.7778" fill="#C0B384"/>
<path d="M21.0002 21.4444V16.8867C21.0002 14.6467 20.518 12.9356 17.9047 12.9356C16.6447 12.9356 15.8047 13.62 15.4625 14.2733H15.4313V13.1378H12.958V21.4444H15.5402V17.3222C15.5402 16.2333 15.7425 15.1911 17.0802 15.1911C18.4025 15.1911 18.418 16.42 18.418 17.3844V21.4289H21.0002V21.4444Z" fill="white"/>
<path d="M8.75781 13.1378H11.34V21.4444H8.75781V13.1378Z" fill="white"/>
<path d="M10.049 9C9.22455 9 8.55566 9.66889 8.55566 10.4933C8.55566 11.3178 9.22455 12.0022 10.049 12.0022C10.8734 12.0022 11.5423 11.3178 11.5423 10.4933C11.5423 9.66889 10.8734 9 10.049 9Z" fill="white"/>
</svg>
