<svg width="30" height="31" viewBox="0 0 30 31" fill="none" xmlns="http://www.w3.org/2000/svg">
<circle cx="14.7778" cy="15.3333" r="14.7778" fill="#C0B384"/>
<path d="M13.2844 16.1422C13.2377 16.1422 12.2111 16.1422 11.7444 16.1422C11.4955 16.1422 11.4177 16.0489 11.4177 15.8156C11.4177 15.1933 11.4177 14.5556 11.4177 13.9333C11.4177 13.6844 11.5111 13.6067 11.7444 13.6067H13.2844C13.2844 13.56 13.2844 12.6578 13.2844 12.2378C13.2844 11.6156 13.3933 11.0244 13.7044 10.48C14.0311 9.92 14.4977 9.54666 15.0888 9.32889C15.4777 9.18889 15.8666 9.12666 16.2866 9.12666H17.8111C18.0288 9.12666 18.1222 9.22 18.1222 9.43777V11.2111C18.1222 11.4289 18.0288 11.5222 17.8111 11.5222C17.3911 11.5222 16.9711 11.5222 16.5511 11.5378C16.1311 11.5378 15.9133 11.74 15.9133 12.1756C15.8977 12.6422 15.9133 13.0933 15.9133 13.5756H17.7177C17.9666 13.5756 18.0599 13.6689 18.0599 13.9178V15.8C18.0599 16.0489 17.9822 16.1267 17.7177 16.1267C17.1577 16.1267 15.9599 16.1267 15.9133 16.1267V21.1978C15.9133 21.4622 15.8355 21.5556 15.5555 21.5556C14.9022 21.5556 14.2644 21.5556 13.6111 21.5556C13.3777 21.5556 13.2844 21.4622 13.2844 21.2289C13.2844 19.5956 13.2844 16.1889 13.2844 16.1422Z" fill="white"/>
</svg>
