<svg width="30" height="31" viewBox="0 0 38 39" fill="none" xmlns="http://www.w3.org/2000/svg">
<g filter="url(#filter0_d_44_22)">
<circle cx="18.7778" cy="15.5555" r="14.7778" fill="#C0B384"/>
<g clip-path="url(#clip0_44_22)">
<path d="M18.8631 11.4914C21.4842 11.5171 23.1262 11.354 23.348 14.2592H26.5443C26.5443 9.75864 22.6191 9.15201 18.7799 9.15201C14.9404 9.15201 11.0156 9.75864 11.0156 14.2592H14.1871C14.4324 11.2987 16.2638 11.466 18.8631 11.4914Z" fill="white"/>
<path d="M12.6008 15.7061C13.3793 15.7061 14.0271 15.7527 14.1711 14.9869C14.1905 14.8828 14.2017 14.7648 14.2017 14.6284H14.1648H11C11 15.7675 11.7168 15.7061 12.6008 15.7061Z" fill="white"/>
<path d="M23.3686 14.6284H23.3386C23.3386 14.7657 23.3504 14.884 23.3725 14.9869C23.5244 15.6931 24.1713 15.6492 24.947 15.6492C25.8354 15.6492 26.5554 15.7076 26.5554 14.6284H23.3686Z" fill="white"/>
<path d="M21.8072 13.8526V13.4C21.8072 13.1976 21.5739 13.1848 21.2859 13.1848H20.8154C20.5276 13.1848 20.2944 13.1976 20.2944 13.4V13.79V14.0925H16.9662V13.79V13.4C16.9662 13.1976 16.7329 13.1848 16.4452 13.1848H15.9744C15.6867 13.1848 15.4534 13.1976 15.4534 13.4V13.8526V14.2477C14.6952 15.0356 12.2142 18.3895 12.124 18.7955L12.1252 21.505C12.1252 21.7552 12.3289 21.9588 12.5791 21.9588H24.6815C24.9317 21.9588 25.1353 21.7552 25.1353 21.505V18.7819C25.0461 18.3877 22.5657 15.0353 21.8072 14.2474V13.8526ZM16.8022 19.1601C16.5587 19.1601 16.3611 18.9628 16.3611 18.719C16.3611 18.4751 16.5587 18.2779 16.8022 18.2779C17.0458 18.2779 17.2434 18.4751 17.2434 18.719C17.2434 18.9628 17.0458 19.1601 16.8022 19.1601ZM16.8022 17.6473C16.5587 17.6473 16.3611 17.45 16.3611 17.2062C16.3611 16.9623 16.5587 16.765 16.8022 16.765C17.0458 16.765 17.2434 16.9623 17.2434 17.2062C17.2434 17.45 17.0458 17.6473 16.8022 17.6473ZM16.8022 16.1348C16.5587 16.1348 16.3611 15.9375 16.3611 15.6937C16.3611 15.4501 16.5587 15.2525 16.8022 15.2525C17.0458 15.2525 17.2434 15.4501 17.2434 15.6937C17.2434 15.9375 17.0458 16.1348 16.8022 16.1348ZM18.6176 19.1601C18.374 19.1601 18.1764 18.9628 18.1764 18.719C18.1764 18.4751 18.374 18.2779 18.6176 18.2779C18.8614 18.2779 19.0587 18.4751 19.0587 18.719C19.0587 18.9628 18.8614 19.1601 18.6176 19.1601ZM18.6176 17.6473C18.374 17.6473 18.1764 17.45 18.1764 17.2062C18.1764 16.9623 18.374 16.765 18.6176 16.765C18.8614 16.765 19.0587 16.9623 19.0587 17.2062C19.0587 17.45 18.8614 17.6473 18.6176 17.6473ZM18.6176 16.1348C18.374 16.1348 18.1764 15.9375 18.1764 15.6937C18.1764 15.4501 18.374 15.2525 18.6176 15.2525C18.8614 15.2525 19.0587 15.4501 19.0587 15.6937C19.0587 15.9375 18.8614 16.1348 18.6176 16.1348ZM20.4329 19.1601C20.1891 19.1601 19.9918 18.9628 19.9918 18.719C19.9918 18.4751 20.1891 18.2779 20.4329 18.2779C20.6768 18.2779 20.8741 18.4751 20.8741 18.719C20.8741 18.9628 20.6768 19.1601 20.4329 19.1601ZM20.4329 17.6473C20.1891 17.6473 19.9918 17.45 19.9918 17.2062C19.9918 16.9623 20.1891 16.765 20.4329 16.765C20.6768 16.765 20.8741 16.9623 20.8741 17.2062C20.8741 17.45 20.6768 17.6473 20.4329 17.6473ZM20.4329 16.1348C20.1891 16.1348 19.9918 15.9375 19.9918 15.6937C19.9918 15.4501 20.1891 15.2525 20.4329 15.2525C20.6768 15.2525 20.8741 15.4501 20.8741 15.6937C20.8741 15.9375 20.6768 16.1348 20.4329 16.1348Z" fill="white"/>
</g>
</g>
<defs>
<filter id="filter0_d_44_22" x="0" y="0.777771" width="37.5557" height="37.5555" filterUnits="userSpaceOnUse" color-interpolation-filters="sRGB">
<feFlood flood-opacity="0" result="BackgroundImageFix"/>
<feColorMatrix in="SourceAlpha" type="matrix" values="0 0 0 0 0 0 0 0 0 0 0 0 0 0 0 0 0 0 127 0" result="hardAlpha"/>
<feOffset dy="4"/>
<feGaussianBlur stdDeviation="2"/>
<feComposite in2="hardAlpha" operator="out"/>
<feColorMatrix type="matrix" values="0 0 0 0 0 0 0 0 0 0 0 0 0 0 0 0 0 0 0.25 0"/>
<feBlend mode="normal" in2="BackgroundImageFix" result="effect1_dropShadow_44_22"/>
<feBlend mode="normal" in="SourceGraphic" in2="effect1_dropShadow_44_22" result="shape"/>
</filter>
<clipPath id="clip0_44_22">
<rect width="15.5556" height="15.5556" fill="white" transform="translate(11 7.77777)"/>
</clipPath>
</defs>
</svg>
