<svg width="50" height="50" viewBox="0 0 50 50" fill="none" xmlns="http://www.w3.org/2000/svg">
<g clip-path="url(#clip0_83_539)">
<path d="M27.4941 12.1318H18.5547V37.8682H21.4844V29.7099H27.4941C32.2575 29.7099 36.1328 25.8346 36.1328 21.0713V20.7703C36.1328 16.0071 32.2575 12.1318 27.4941 12.1318ZM33.2031 21.0714C33.2031 24.2192 30.6421 26.7803 27.4941 26.7803H21.4844V15.0615H27.4941C30.6421 15.0615 33.2031 17.6226 33.2031 20.7704V21.0714Z" fill="black"/>
<path d="M42.6777 7.32227C37.9558 2.60039 31.6777 0 25 0C18.3223 0 12.0442 2.60039 7.32227 7.32227C2.60049 12.0442 0 18.3224 0 25C0 31.6776 2.60049 37.9558 7.32236 42.6776C12.0442 47.3995 18.3223 50 25 50C31.6777 50 37.9558 47.3996 42.6777 42.6777C47.3995 37.9558 50 31.6776 50 25C50 18.3224 47.3995 12.0442 42.6777 7.32227ZM40.6062 40.6062C36.4375 44.7746 30.8951 47.0703 25 47.0703C19.1048 47.0703 13.5625 44.7746 9.39395 40.6061C5.22539 36.4375 2.92969 30.8951 2.92969 25C2.92969 19.1049 5.22539 13.5625 9.39395 9.39385C13.5625 5.22539 19.1048 2.92969 25 2.92969C30.8951 2.92969 36.4375 5.22539 40.6062 9.39385C44.7746 13.5625 47.0703 19.1049 47.0703 25C47.0703 30.8951 44.7746 36.4375 40.6062 40.6062Z" fill="black"/>
</g>
<defs>
<clipPath id="clip0_83_539">
<rect width="50" height="50" fill="white"/>
</clipPath>
</defs>
</svg>
