<svg width="30" height="31" viewBox="0 0 30 31" fill="none" xmlns="http://www.w3.org/2000/svg">
<circle cx="14.7778" cy="15.5555" r="14.7778" fill="#C0B384"/>
<g clip-path="url(#clip0_98_2647)">
<path d="M14.8631 11.4914C17.4842 11.5171 19.1262 11.354 19.348 14.2592H22.5443C22.5443 9.75864 18.6191 9.15201 14.7799 9.15201C10.9404 9.15201 7.01562 9.75864 7.01562 14.2592H10.1871C10.4324 11.2987 12.2638 11.466 14.8631 11.4914Z" fill="white"/>
<path d="M8.60085 15.7061C9.37934 15.7061 10.0271 15.7527 10.1711 14.9869C10.1905 14.8828 10.2017 14.7648 10.2017 14.6284H10.1648H7C7 15.7675 7.71677 15.7061 8.60085 15.7061Z" fill="white"/>
<path d="M19.3688 14.6284H19.3389C19.3389 14.7657 19.3507 14.884 19.3728 14.9869C19.5246 15.6931 20.1715 15.6492 20.9473 15.6492C21.8356 15.6492 22.5557 15.7076 22.5557 14.6284H19.3688Z" fill="white"/>
<path d="M17.8072 13.8526V13.4C17.8072 13.1976 17.5739 13.1848 17.2859 13.1848H16.8154C16.5276 13.1848 16.2944 13.1976 16.2944 13.4V13.79V14.0925H12.9662V13.79V13.4C12.9662 13.1976 12.7329 13.1848 12.4452 13.1848H11.9744C11.6867 13.1848 11.4534 13.1976 11.4534 13.4V13.8526V14.2477C10.6952 15.0356 8.21419 18.3895 8.12402 18.7955L8.12523 21.505C8.12523 21.7552 8.32886 21.9588 8.57907 21.9588H20.6815C20.9317 21.9588 21.1353 21.7552 21.1353 21.505V18.7819C21.0461 18.3877 18.5657 15.0353 17.8072 14.2474V13.8526ZM12.8022 19.1601C12.5587 19.1601 12.3611 18.9628 12.3611 18.719C12.3611 18.4751 12.5587 18.2779 12.8022 18.2779C13.0458 18.2779 13.2434 18.4751 13.2434 18.719C13.2434 18.9628 13.0458 19.1601 12.8022 19.1601ZM12.8022 17.6473C12.5587 17.6473 12.3611 17.45 12.3611 17.2062C12.3611 16.9623 12.5587 16.765 12.8022 16.765C13.0458 16.765 13.2434 16.9623 13.2434 17.2062C13.2434 17.45 13.0458 17.6473 12.8022 17.6473ZM12.8022 16.1348C12.5587 16.1348 12.3611 15.9375 12.3611 15.6937C12.3611 15.4501 12.5587 15.2525 12.8022 15.2525C13.0458 15.2525 13.2434 15.4501 13.2434 15.6937C13.2434 15.9375 13.0458 16.1348 12.8022 16.1348ZM14.6176 19.1601C14.374 19.1601 14.1764 18.9628 14.1764 18.719C14.1764 18.4751 14.374 18.2779 14.6176 18.2779C14.8614 18.2779 15.0587 18.4751 15.0587 18.719C15.0587 18.9628 14.8614 19.1601 14.6176 19.1601ZM14.6176 17.6473C14.374 17.6473 14.1764 17.45 14.1764 17.2062C14.1764 16.9623 14.374 16.765 14.6176 16.765C14.8614 16.765 15.0587 16.9623 15.0587 17.2062C15.0587 17.45 14.8614 17.6473 14.6176 17.6473ZM14.6176 16.1348C14.374 16.1348 14.1764 15.9375 14.1764 15.6937C14.1764 15.4501 14.374 15.2525 14.6176 15.2525C14.8614 15.2525 15.0587 15.4501 15.0587 15.6937C15.0587 15.9375 14.8614 16.1348 14.6176 16.1348ZM16.4329 19.1601C16.1891 19.1601 15.9918 18.9628 15.9918 18.719C15.9918 18.4751 16.1891 18.2779 16.4329 18.2779C16.6768 18.2779 16.8741 18.4751 16.8741 18.719C16.8741 18.9628 16.6768 19.1601 16.4329 19.1601ZM16.4329 17.6473C16.1891 17.6473 15.9918 17.45 15.9918 17.2062C15.9918 16.9623 16.1891 16.765 16.4329 16.765C16.6768 16.765 16.8741 16.9623 16.8741 17.2062C16.8741 17.45 16.6768 17.6473 16.4329 17.6473ZM16.4329 16.1348C16.1891 16.1348 15.9918 15.9375 15.9918 15.6937C15.9918 15.4501 16.1891 15.2525 16.4329 15.2525C16.6768 15.2525 16.8741 15.4501 16.8741 15.6937C16.8741 15.9375 16.6768 16.1348 16.4329 16.1348Z" fill="white"/>
</g>
<defs>
<clipPath id="clip0_98_2647">
<rect width="15.5556" height="15.5556" fill="white" transform="translate(7 7.77777)"/>
</clipPath>
</defs>
</svg>
