<svg width="298" height="157" viewBox="0 0 298 157" fill="none" xmlns="http://www.w3.org/2000/svg">
<path opacity="0.05" d="M219.07 91.8959C218.528 90.1983 215.59 87.9281 214.537 86.3911C211.729 82.2726 209.452 77.471 209.171 72.4182C208.068 52.8702 229.51 48.7115 244.524 49.5553C261.112 50.4795 277.701 57.692 287.88 71.1726C300.637 88.0988 301.42 113.142 289.736 130.831C278.312 148.099 256.93 157.109 236.25 156.999C215.58 156.888 195.632 148.672 178.261 137.431C162.555 127.255 147.792 115.573 134.002 102.936C121.456 91.4439 110.213 79.6207 94.8884 71.6548C81.0582 64.4624 65.3926 60.4343 49.8473 61.5192C40.7709 62.1621 31.4538 64.7236 24.7643 70.9014C15.6578 79.2992 13.0803 93.3726 16.7209 105.216C20.3615 117.069 29.4379 126.703 40.0588 133.061C55.8949 142.544 75.8731 142.283 80.9077 121.881C80.9077 121.881 88.4096 115.573 86.7548 126.421C85.7217 133.262 78.8718 141.148 73.6967 145.105C63.146 153.162 49.6869 152.007 38.063 146.934C22.8688 140.314 9.89101 128.079 3.76317 112.659C-2.36466 97.24 -1.11102 78.7367 8.27631 65.0551C17.2524 51.9662 32.7275 44.2615 48.4633 42.3328C79.2529 38.5659 110.504 53.4428 135.005 70.8211C138.345 73.1917 152.396 55.3313 153.409 52.9004C157.41 43.3474 150.901 34.3469 142.728 29.7662C133.531 24.6231 123.181 25.2559 113.924 29.9571C113.763 30.0274 113.904 16.9787 114.165 15.8938C115.779 9.23382 120.082 4.30161 126.541 1.84053C131.575 -0.0781039 137.111 -0.299099 142.457 0.283524C151.012 1.20768 159.436 4.20116 166.216 9.50504C195.281 32.2775 171.501 62.4132 149.337 78.0637C149.758 77.7623 178.211 101.851 181.41 103.91C197.156 114.026 215.6 119.942 234.294 120.696C244.464 121.097 255.817 119.45 262.246 111.564C265.264 107.858 266.839 103.116 267.31 98.3651C268.363 87.6669 263.75 76.577 255.426 69.7964C249.438 64.9245 241.405 62.2625 233.853 63.7994C220.795 66.4413 215.319 80.0024 219.07 91.8959Z" fill="#FAFAFA"/>
</svg>
