<svg width="850" height="447" viewBox="0 0 850 447" fill="none" xmlns="http://www.w3.org/2000/svg">
<path d="M624.863 261.64C623.318 256.807 614.936 250.343 611.933 245.968C603.923 234.241 597.429 220.571 596.628 206.185C593.481 150.529 654.642 138.688 697.467 141.091C744.782 143.722 792.098 164.257 821.134 202.638C857.521 250.83 859.753 322.13 826.426 372.495C793.843 421.658 732.853 447.312 673.866 446.998C614.908 446.683 558.009 423.288 508.462 391.285C463.664 362.313 421.555 329.051 382.221 293.072C346.434 260.353 314.366 226.691 270.654 204.011C231.206 183.533 186.522 172.065 142.182 175.154C116.293 176.984 89.717 184.277 70.6363 201.866C44.6614 225.776 37.3095 265.845 47.6937 299.564C58.078 333.312 83.9671 360.74 114.262 378.844C159.432 405.842 216.416 405.099 230.777 347.012C230.777 347.012 252.175 329.051 247.454 359.939C244.508 379.416 224.97 401.867 210.208 413.135C180.114 436.073 141.724 432.784 108.569 418.341C65.2297 399.493 28.2126 364.658 10.7339 320.757C-6.74484 276.856 -3.169 224.174 23.6069 185.221C49.2099 147.955 93.3501 126.019 138.234 120.527C226.057 109.802 315.195 152.159 385.081 201.637C394.607 208.387 434.685 157.536 437.575 150.615C448.989 123.416 430.423 97.7903 407.109 84.7486C380.876 70.1053 351.354 71.9072 324.95 85.292C324.492 85.4922 324.893 48.3406 325.637 45.2518C330.242 26.2899 342.515 12.2473 360.937 5.24025C375.298 -0.222373 391.089 -0.851576 406.336 0.807232C430.738 3.43844 454.767 11.9613 474.105 27.0621C557.008 91.8986 489.181 177.699 425.96 222.258C427.162 221.4 508.319 289.983 517.445 295.846C562.357 324.646 614.965 341.492 668.288 343.637C697.295 344.781 729.678 340.091 748.015 317.639C756.625 307.086 761.117 293.587 762.461 280.059C765.465 249.6 752.306 218.025 728.562 198.72C711.484 184.849 688.57 177.27 667.029 181.646C629.783 189.168 614.164 227.778 624.863 261.64Z" fill="#FAFAFA"/>
</svg>
